<svg width="319" height="240" viewBox="0 0 319 240" fill="none" xmlns="http://www.w3.org/2000/svg">
<g clip-path="url(#clip0_628_5134)">
<path d="M300.203 217.733C300.01 224.968 298.801 232.139 296.612 239.036C296.563 239.196 296.51 239.353 296.457 239.513H283.055C283.069 239.37 283.084 239.21 283.098 239.036C283.991 228.738 278.887 166.809 272.727 156.091C273.266 156.96 301.243 185.012 300.203 217.733Z" fill="#F0F0F0"/>
<path d="M299.197 239.036C299.085 239.196 298.969 239.356 298.849 239.513H288.795C288.871 239.377 288.959 239.217 289.062 239.036C290.723 236.031 295.639 227.047 300.202 217.733C305.104 207.724 309.605 197.336 309.226 193.576C309.344 194.424 312.737 220.275 299.197 239.036Z" fill="#F0F0F0"/>
<path d="M253.006 195.239H0V0H253.006V195.239Z" fill="white"/>
<path d="M253.006 195.239H0V0H253.006V195.239ZM3.73815 191.492H249.268V3.74725H3.73815V191.492Z" fill="#E5E5E5"/>
<path d="M66.2157 147.173H47.0601C46.5414 147.173 46.0441 146.966 45.6773 146.598C45.3105 146.23 45.1041 145.732 45.1035 145.212V118.742C45.1041 118.222 45.3105 117.723 45.6773 117.355C46.0441 116.988 46.5414 116.781 47.0601 116.78H66.2157C66.7344 116.781 67.2317 116.988 67.5985 117.355C67.9653 117.723 68.1717 118.222 68.1723 118.742V145.212C68.1717 145.732 67.9653 146.23 67.5985 146.598C67.2317 146.966 66.7344 147.173 66.2157 147.173Z" fill="#E6E6E6"/>
<path d="M101.147 147.173H81.9917C81.473 147.173 80.9757 146.966 80.6089 146.598C80.2421 146.231 80.0358 145.732 80.0352 145.212V93.6344C80.0358 93.1145 80.2421 92.616 80.6089 92.2483C80.9757 91.8807 81.473 91.6739 81.9917 91.6733H101.147C101.666 91.6739 102.163 91.8807 102.53 92.2483C102.897 92.616 103.103 93.1145 103.104 93.6344V145.212C103.103 145.732 102.897 146.231 102.53 146.598C102.163 146.966 101.666 147.173 101.147 147.173Z" fill="#E6E6E6"/>
<path d="M136.081 147.173H116.925C116.407 147.173 115.909 146.966 115.543 146.598C115.176 146.23 114.969 145.732 114.969 145.212V118.742C114.969 118.222 115.176 117.723 115.543 117.355C115.909 116.988 116.407 116.781 116.925 116.78H136.081C136.6 116.781 137.097 116.988 137.464 117.355C137.831 117.723 138.037 118.222 138.038 118.742V145.212C138.037 145.732 137.831 146.23 137.464 146.598C137.097 146.966 136.6 147.173 136.081 147.173Z" fill="#E6E6E6"/>
<path d="M171.015 147.173H151.859C151.352 147.184 150.861 146.993 150.495 146.642C150.128 146.291 149.915 145.809 149.902 145.301V83.6349C149.915 83.1268 150.128 82.6444 150.495 82.2935C150.861 81.9425 151.352 81.7516 151.859 81.7625H171.015C171.521 81.7516 172.012 81.9425 172.379 82.2935C172.745 82.6444 172.958 83.1268 172.971 83.6349V145.301C172.958 145.809 172.745 146.291 172.379 146.642C172.012 146.993 171.521 147.184 171.015 147.173Z" fill="#E6E6E6"/>
<path d="M205.946 147.173H186.791C186.272 147.173 185.775 146.966 185.408 146.598C185.041 146.23 184.835 145.732 184.834 145.212V65.8845C184.835 65.3645 185.041 64.866 185.408 64.4983C185.775 64.1307 186.272 63.9239 186.791 63.9233H205.946C206.465 63.9239 206.962 64.1307 207.329 64.4983C207.696 64.866 207.902 65.3645 207.903 65.8845V145.212C207.902 145.732 207.696 146.23 207.329 146.598C206.962 146.966 206.465 147.173 205.946 147.173Z" fill="#F2F2F2"/>
<path d="M56.6382 108.852C58.8223 108.852 60.5929 107.077 60.5929 104.887C60.5929 102.698 58.8223 100.923 56.6382 100.923C54.4541 100.923 52.6836 102.698 52.6836 104.887C52.6836 107.077 54.4541 108.852 56.6382 108.852Z" fill="#3F3D56"/>
<path d="M91.5699 83.084C93.754 83.084 95.5245 81.3091 95.5245 79.1197C95.5245 76.9303 93.754 75.1554 91.5699 75.1554C89.3858 75.1554 87.6152 76.9303 87.6152 79.1197C87.6152 81.3091 89.3858 83.084 91.5699 83.084Z" fill="#3F3D56"/>
<path d="M126.503 108.852C128.688 108.852 130.458 107.077 130.458 104.887C130.458 102.698 128.688 100.923 126.503 100.923C124.319 100.923 122.549 102.698 122.549 104.887C122.549 107.077 124.319 108.852 126.503 108.852Z" fill="#3F3D56"/>
<path d="M161.435 70.5304C163.619 70.5304 165.39 68.7555 165.39 66.5661C165.39 64.3767 163.619 62.6018 161.435 62.6018C159.251 62.6018 157.48 64.3767 157.48 66.5661C157.48 68.7555 159.251 70.5304 161.435 70.5304Z" fill="#3F3D56"/>
<path d="M196.369 55.9947C198.553 55.9947 200.323 54.2198 200.323 52.0304C200.323 49.841 198.553 48.0662 196.369 48.0662C194.185 48.0662 192.414 49.841 192.414 52.0304C192.414 54.2198 194.185 55.9947 196.369 55.9947Z" fill="#3F3D56"/>
<path d="M126.588 105.776L91.5718 79.4844L57.0346 105.416L56.2441 104.359L91.5718 77.8331L126.421 103.999L161.052 66.0095L161.191 65.9531L196.123 51.8439L196.616 53.0698L161.823 67.1225L126.588 105.776Z" fill="#3F3D56"/>
<path d="M245.234 233.526L239.284 233.526L236.453 210.519L245.235 210.52L245.234 233.526Z" fill="#FFB6B6"/>
<path d="M246.751 239.308L227.564 239.308V239.064C227.565 237.079 228.351 235.175 229.752 233.771C231.152 232.367 233.052 231.579 235.032 231.579H235.033L246.751 231.579L246.751 239.308Z" fill="#2F2E41"/>
<path d="M223.969 136.148L227.347 190.102L238.689 228.08L247.476 228.718L243.064 182.433L244.998 151.695C244.998 151.695 254.17 144.842 249.099 136.592L223.969 136.148Z" fill="#2F2E41"/>
<path d="M249.117 233.526L243.166 233.526L240.336 210.519L249.118 210.52L249.117 233.526Z" fill="#FFB6B6"/>
<path d="M250.633 239.308L231.447 239.308V239.064C231.447 237.079 232.234 235.175 233.635 233.771C235.035 232.367 236.934 231.579 238.915 231.579H238.915L250.634 231.579L250.633 239.308Z" fill="#2F2E41"/>
<path d="M227.852 136.148L231.23 190.102L242.572 228.08L251.359 228.718L246.946 182.433L248.881 151.695C248.881 151.695 258.053 144.842 252.982 136.592L227.852 136.148Z" fill="#2F2E41"/>
<path d="M246.163 144.503C236.03 144.503 224.104 138.296 223.413 137.931L223.221 137.83L246.477 78.356L257.994 72.9016C258.881 72.4816 259.864 72.3065 260.84 72.3944C261.817 72.4822 262.753 72.8298 263.551 73.4013C264.349 73.9728 264.981 74.7474 265.381 75.6453C265.781 76.5431 265.934 77.5316 265.825 78.5088L261.255 119.611L256.484 140.899L256.433 140.949C253.8 143.557 250.117 144.503 246.163 144.503Z" fill="#3F3D56"/>
<path d="M209.001 105.133C209.604 104.75 210.283 104.504 210.991 104.412C211.698 104.321 212.417 104.386 213.097 104.603C213.777 104.82 214.401 105.184 214.925 105.669C215.45 106.155 215.861 106.749 216.132 107.411L233.45 106.463L228.906 114.265L213.157 113.969C212.018 114.351 210.778 114.3 209.674 113.827C208.569 113.354 207.676 112.491 207.164 111.401C206.652 110.312 206.556 109.072 206.894 107.917C207.233 106.762 207.983 105.771 209.001 105.133Z" fill="#FFB6B6"/>
<path d="M243.177 117.346L225.822 116.902L226.046 105.394L234.253 102.776L247.714 83.8497C248.388 82.902 249.245 82.0994 250.233 81.4894C251.222 80.8793 252.323 80.4742 253.471 80.298C254.618 80.1217 255.789 80.178 256.915 80.4634C258.041 80.7488 259.098 81.2575 260.024 81.9595C260.95 82.6615 261.726 83.5425 262.307 84.5504C262.887 85.5584 263.26 86.6727 263.404 87.8277C263.547 88.9826 263.458 90.1547 263.142 91.2746C262.826 92.3944 262.289 93.4394 261.563 94.3476L243.177 117.346Z" fill="#3F3D56"/>
<path d="M253.225 70.7102C259.594 70.7102 264.757 65.5346 264.757 59.1502C264.757 52.7659 259.594 47.5903 253.225 47.5903C246.856 47.5903 241.693 52.7659 241.693 59.1502C241.693 65.5346 246.856 70.7102 253.225 70.7102Z" fill="#FFB6B6"/>
<path d="M238.636 49.517C239.8 48.3208 241.312 47.5253 242.955 47.2449C244.557 46.8995 246.314 46.7924 247.595 45.7853C249.051 44.6225 249.692 42.4137 251.478 41.9223C252.255 41.7657 253.06 41.8298 253.803 42.1072C256.657 42.9702 259.191 44.6635 261.083 46.9724C261.529 47.6341 262.097 48.2039 262.757 48.651C263.152 48.8185 263.538 49.0069 263.913 49.2153C264.324 49.5406 264.647 49.9638 264.854 50.4463C266.142 53.0522 266.439 56.0392 265.689 58.8486C265.242 60.5077 264.437 62.0451 263.961 63.7139C263.486 65.3827 261.286 68.5572 260.771 67.7691C260.257 66.9809 259.597 66.2462 259.315 65.3364C258.766 63.5468 259.262 61.7458 257.865 60.5028C257.001 59.7341 255.438 59.2184 254.851 60.2109C254.618 60.5952 254.633 61.0818 254.434 61.4807C254.041 62.2591 252.905 62.4148 252.153 61.9672C251.428 61.4654 250.918 60.7079 250.726 59.846C249.595 56.0121 247.668 53.599 243.577 55.2385C242.053 55.8516 240.257 56.2651 238.791 55.2142C236.859 53.8325 237.253 51.0933 238.636 49.517Z" fill="#2F2E41"/>
<path d="M212.741 153.498H193.585C193.067 153.497 192.569 153.291 192.203 152.923C191.836 152.555 191.63 152.057 191.629 151.537V72.2093C191.63 71.6893 191.836 71.1908 192.203 70.8232C192.569 70.4555 193.067 70.2487 193.585 70.2481H212.741C213.26 70.2487 213.757 70.4555 214.124 70.8232C214.491 71.1908 214.697 71.6893 214.698 72.2093V151.537C214.697 152.057 214.491 152.555 214.124 152.923C213.757 153.291 213.26 153.497 212.741 153.498Z" fill="#6C63FF"/>
<path d="M208.517 111.944C209.12 111.561 209.799 111.315 210.506 111.224C211.214 111.132 211.933 111.197 212.613 111.415C213.293 111.632 213.917 111.996 214.441 112.481C214.965 112.966 215.377 113.56 215.647 114.222L232.965 113.274L228.421 121.076L212.673 120.781C211.533 121.162 210.294 121.112 209.189 120.638C208.085 120.165 207.192 119.302 206.679 118.213C206.167 117.123 206.071 115.884 206.41 114.728C206.749 113.573 207.498 112.582 208.517 111.944H208.517Z" fill="#FFB6B6"/>
<path d="M242.691 124.158L225.336 123.714L225.56 112.206L233.766 109.587L247.228 90.6611C247.902 89.7134 248.758 88.9108 249.747 88.3007C250.736 87.6907 251.837 87.2856 252.984 87.1093C254.132 86.9331 255.303 86.9893 256.429 87.2747C257.554 87.5601 258.611 88.0688 259.537 88.7708C260.464 89.4728 261.24 90.3539 261.82 91.3618C262.401 92.3697 262.774 93.4841 262.917 94.6391C263.061 95.794 262.972 96.9661 262.656 98.0859C262.339 99.2058 261.802 100.251 261.076 101.159L242.691 124.158Z" fill="#3F3D56"/>
<path d="M318.515 240H133.598C133.534 240 133.471 239.988 133.412 239.963C133.353 239.939 133.299 239.903 133.254 239.858C133.209 239.813 133.173 239.759 133.148 239.7C133.124 239.641 133.111 239.578 133.111 239.513C133.111 239.449 133.124 239.386 133.148 239.327C133.173 239.268 133.209 239.214 133.254 239.169C133.299 239.124 133.353 239.088 133.412 239.064C133.471 239.039 133.534 239.027 133.598 239.027H318.515C318.579 239.027 318.642 239.039 318.701 239.064C318.76 239.088 318.814 239.124 318.859 239.169C318.904 239.214 318.94 239.268 318.964 239.327C318.989 239.386 319.001 239.449 319.001 239.513C319.001 239.578 318.989 239.641 318.964 239.7C318.94 239.759 318.904 239.813 318.859 239.858C318.814 239.903 318.76 239.939 318.701 239.963C318.642 239.988 318.579 240 318.515 240Z" fill="#CACACA"/>
</g>
<defs>
<clipPath id="clip0_628_5134">
<rect width="319" height="240" fill="white"/>
</clipPath>
</defs>
</svg>
