<svg width="37" height="24" viewBox="0 0 37 24" fill="none" xmlns="http://www.w3.org/2000/svg">
<path d="M12.3002 9.79933L22.7431 22.6143L20.9701 23.7763L10.5145 10.9696L12.3002 9.79933ZM9.89495 4.95624L9.34865 4.28646L8.34816 4.94216L7.75556 4.21562L5.95721 5.39421L6.54981 6.12075L5.54933 6.77644L6.09563 7.44622C4.24281 8.93924 2.65946 10.6912 1.42499 12.6326L3.24586 13.7213C4.55229 12.1421 6.04316 10.7295 7.73455 9.45554L8.19752 10.0231L11.9968 7.53316L11.5339 6.96556C13.4012 5.90726 15.355 5.06227 17.43 4.42534L16.8249 2.53982C14.3867 3.00542 12.0441 3.82648 9.89495 4.95624Z" fill="#FFF"/>
<path d="M26.0763 11.3254L14.9627 23.6789L13.2524 22.4437L24.3537 10.0814L26.0763 11.3254ZM30.6745 7.99149L31.2552 7.3454L30.2901 6.6484L30.92 5.94755L29.1853 4.69472L28.5553 5.39557L27.5902 4.69857L27.0095 5.34467C24.9218 4.12588 22.6247 3.20734 20.2135 2.63984L19.5105 4.49787C21.5499 5.22125 23.4574 6.14738 25.2674 7.28294L24.7752 7.83048L28.4402 10.4773L28.9323 9.92977C30.5553 11.2734 31.9707 12.7471 33.1931 14.3793L35.0689 13.3683C33.9373 11.3772 32.4472 9.5607 30.6745 7.99149Z" fill="#FFF"/>
</svg>
